<?xml version="1.0" encoding="UTF-8" standalone="no"?>
<!-- Created with Inkscape (http://www.inkscape.org/) -->

<svg
   xmlns:dc="http://purl.org/dc/elements/1.1/"
   xmlns:cc="http://creativecommons.org/ns#"
   xmlns:rdf="http://www.w3.org/1999/02/22-rdf-syntax-ns#"
   xmlns:svg="http://www.w3.org/2000/svg"
   xmlns="http://www.w3.org/2000/svg"
   xmlns:sodipodi="http://sodipodi.sourceforge.net/DTD/sodipodi-0.dtd"
   xmlns:inkscape="http://www.inkscape.org/namespaces/inkscape"
   width="744.09448819"
   height="1052.3622047"
   id="svg8250"
   version="1.1"
   inkscape:version="0.48.3.1 r9886"
   sodipodi:docname="T16_141.svg">
  <defs
     id="defs8252" />
  <sodipodi:namedview
     id="base"
     pagecolor="#ffffff"
     bordercolor="#666666"
     borderopacity="1.0"
     inkscape:pageopacity="0.0"
     inkscape:pageshadow="2"
     inkscape:zoom="2.0901433"
     inkscape:cx="541.7959"
     inkscape:cy="470.86256"
     inkscape:document-units="px"
     inkscape:current-layer="layer1"
     showgrid="false"
     inkscape:window-width="1855"
     inkscape:window-height="1056"
     inkscape:window-x="65"
     inkscape:window-y="24"
     inkscape:window-maximized="1" />
  <metadata
     id="metadata8255">
    <rdf:RDF>
      <cc:Work
         rdf:about="">
        <dc:format>image/svg+xml</dc:format>
        <dc:type
           rdf:resource="http://purl.org/dc/dcmitype/StillImage" />
        <dc:title />
      </cc:Work>
    </rdf:RDF>
  </metadata>
  <g
     inkscape:label="Layer 1"
     inkscape:groupmode="layer"
     id="layer1">
    <path
       inkscape:connector-curvature="0"
       id="path2744-7"
       style="fill:none;stroke:#000000;stroke-width:2.5;stroke-linecap:butt;stroke-linejoin:miter;stroke-miterlimit:10;stroke-opacity:1;stroke-dasharray:none"
       d="m 194.65045,653.92314 -19.61,0" />
    <path
       inkscape:connector-curvature="0"
       id="path2746-9"
       style="fill:none;stroke:#000000;stroke-width:2.5;stroke-linecap:butt;stroke-linejoin:miter;stroke-miterlimit:10;stroke-opacity:1;stroke-dasharray:none"
       d="m 116.21295,637.9144 0,8.00374 c 0,8.005 0,8.005 29.4125,8.005 l 29.415,0" />
    <path
       inkscape:connector-curvature="0"
       id="path2748-0"
       style="fill:none;stroke:#000000;stroke-width:2.5;stroke-linecap:butt;stroke-linejoin:miter;stroke-miterlimit:10;stroke-opacity:1;stroke-dasharray:none"
       d="m 175.04045,629.9094 0,4.002 c 0,4.003 0,4.003 0,12.00674 l 0,8.005" />
    <path
       inkscape:connector-curvature="0"
       id="path2750-9"
       style="fill:none;stroke:#000000;stroke-width:2.5;stroke-linecap:butt;stroke-linejoin:miter;stroke-miterlimit:10;stroke-opacity:1;stroke-dasharray:none"
       d="m 175.04045,653.92314 0,8.00476 c 0,8.005 0,8.005 9.805,8.005 l 9.805,0" />
    <path
       inkscape:connector-curvature="0"
       id="path2752-0"
       style="fill:none;stroke:#000000;stroke-width:2.5;stroke-linecap:butt;stroke-linejoin:miter;stroke-miterlimit:10;stroke-opacity:1;stroke-dasharray:none"
       d="m 194.65045,669.9329 9.805,0 c 9.805,0 9.805,0 9.805,-32.0185 0,-32.02076 0,-32.02076 -9.805,-32.02076 l -9.805,0" />
    <path
       inkscape:connector-curvature="0"
       id="path2754-6"
       style="fill:none;stroke:#000000;stroke-width:2.5;stroke-linecap:butt;stroke-linejoin:miter;stroke-miterlimit:10;stroke-opacity:1;stroke-dasharray:none"
       d="m 194.65045,653.92314 0,-8.005 c 0,-8.00374 0,-8.00374 -9.805,-12.00674 l -9.805,-4.002" />
    <path
       inkscape:connector-curvature="0"
       id="path2756-1"
       style="fill:none;stroke:#000000;stroke-width:2.5;stroke-linecap:butt;stroke-linejoin:miter;stroke-miterlimit:10;stroke-opacity:1;stroke-dasharray:none"
       d="m 135.82295,605.89364 -9.805,0 c -9.805,0 -9.805,0 -9.805,16.011 l 0,16.00976" />
    <path
       inkscape:connector-curvature="0"
       id="path2758-2"
       style="fill:none;stroke:#000000;stroke-width:2.5;stroke-linecap:butt;stroke-linejoin:miter;stroke-miterlimit:10;stroke-opacity:1;stroke-dasharray:none"
       d="m 155.43045,605.89364 -19.6075,0" />
    <path
       inkscape:connector-curvature="0"
       id="path2760-0"
       style="fill:none;stroke:#000000;stroke-width:2.5;stroke-linecap:butt;stroke-linejoin:miter;stroke-miterlimit:10;stroke-opacity:1;stroke-dasharray:none"
       d="m 135.82295,637.9144 -19.61,0" />
    <path
       inkscape:connector-curvature="0"
       id="path2762-3"
       style="fill:none;stroke:#000000;stroke-width:2.5;stroke-linecap:butt;stroke-linejoin:miter;stroke-miterlimit:10;stroke-opacity:1;stroke-dasharray:none"
       d="m 194.65045,605.89364 0,-8.0025 c 0,-8.005 0,-8.005 -29.415,-8.005 -29.4125,0 -29.4125,0 -29.4125,8.005 l 0,8.0025" />
    <path
       inkscape:connector-curvature="0"
       id="path2764-7"
       style="fill:none;stroke:#000000;stroke-width:2.5;stroke-linecap:butt;stroke-linejoin:miter;stroke-miterlimit:10;stroke-opacity:1;stroke-dasharray:none"
       d="m 155.43045,605.89364 39.22,0" />
    <path
       inkscape:connector-curvature="0"
       id="path2766-6"
       style="fill:none;stroke:#000000;stroke-width:2.5;stroke-linecap:butt;stroke-linejoin:miter;stroke-miterlimit:10;stroke-opacity:1;stroke-dasharray:none"
       d="m 135.82295,637.9144 0,-32.02076" />
    <path
       inkscape:connector-curvature="0"
       id="path2768-8"
       style="fill:none;stroke:#000000;stroke-width:2.5;stroke-linecap:butt;stroke-linejoin:miter;stroke-miterlimit:10;stroke-opacity:1;stroke-dasharray:none"
       d="m 175.04045,629.9094 -9.805,4.002 c -9.805,4.003 -9.805,4.003 -19.61,4.003 l -9.8025,0" />
    <path
       inkscape:connector-curvature="0"
       id="path2770-0"
       style="fill:none;stroke:#000000;stroke-width:2.5;stroke-linecap:butt;stroke-linejoin:miter;stroke-miterlimit:10;stroke-opacity:1;stroke-dasharray:none"
       d="m 175.04045,629.9094 9.805,-4.003 c 9.805,-4.00176 9.805,-4.00176 9.805,-12.00776 l 0,-8.005" />
    <path
       inkscape:connector-curvature="0"
       id="path2772-6"
       style="fill:none;stroke:#000000;stroke-width:2.5;stroke-linecap:butt;stroke-linejoin:miter;stroke-miterlimit:10;stroke-opacity:1;stroke-dasharray:none"
       d="m 175.04045,629.9094 -9.805,-4.003 c -9.805,-4.00176 -9.805,-4.00176 -9.805,-12.00776 l 0,-8.005" />
    <path
       inkscape:connector-curvature="0"
       id="path2774-8"
       style="fill:none;stroke:#000000;stroke-width:2.5;stroke-linecap:butt;stroke-linejoin:miter;stroke-miterlimit:10;stroke-opacity:1;stroke-dasharray:none"
       d="m 194.65045,669.9329 0,-16.00976" />
    <path
       inkscape:connector-curvature="0"
       id="path2776-9"
       style="fill:#000000;fill-opacity:1;fill-rule:nonzero;stroke:none"
       d="m 120.64295,637.9144 c 0,2.44524 -1.985,4.42874 -4.43,4.42874 -2.445,0 -4.43,-1.9835 -4.43,-4.42874 0,-2.4455 1.985,-4.42976 4.43,-4.42976 2.445,0 4.43,1.98426 4.43,4.42976" />
    <path
       inkscape:connector-curvature="0"
       id="path2778-0"
       style="fill:#000000;fill-opacity:1;fill-rule:nonzero;stroke:none"
       d="m 179.47045,653.92314 c 0,2.44526 -1.985,4.42976 -4.43,4.42976 -2.445,0 -4.4275,-1.9845 -4.4275,-4.42976 0,-2.44524 1.9825,-4.42874 4.4275,-4.42874 2.445,0 4.43,1.9835 4.43,4.42874" />
    <path
       inkscape:connector-curvature="0"
       id="path2780-5"
       style="fill:#000000;fill-opacity:1;fill-rule:nonzero;stroke:none"
       d="m 199.08045,605.89364 c 0,2.4475 -1.985,4.43 -4.43,4.43 -2.445,0 -4.43,-1.9825 -4.43,-4.43 0,-2.445 1.985,-4.4275 4.43,-4.4275 2.445,0 4.43,1.9825 4.43,4.4275" />
    <path
       inkscape:connector-curvature="0"
       id="path2782-5"
       style="fill:#000000;fill-opacity:1;fill-rule:nonzero;stroke:none"
       d="m 179.47045,629.9094 c 0,2.44524 -1.985,4.42874 -4.43,4.42874 -2.445,0 -4.4275,-1.9835 -4.4275,-4.42874 0,-2.44526 1.9825,-4.42976 4.4275,-4.42976 2.445,0 4.43,1.9845 4.43,4.42976" />
    <path
       inkscape:connector-curvature="0"
       id="path2784-1"
       style="fill:#000000;fill-opacity:1;fill-rule:nonzero;stroke:none"
       d="m 140.25045,605.89364 c 0,2.4475 -1.9825,4.43 -4.4275,4.43 -2.4475,0 -4.43,-1.9825 -4.43,-4.43 0,-2.445 1.9825,-4.4275 4.43,-4.4275 2.445,0 4.4275,1.9825 4.4275,4.4275" />
    <path
       inkscape:connector-curvature="0"
       id="path2786-0"
       style="fill:#000000;fill-opacity:1;fill-rule:nonzero;stroke:none"
       d="m 159.86045,605.89364 c 0,2.4475 -1.985,4.43 -4.43,4.43 -2.445,0 -4.4275,-1.9825 -4.4275,-4.43 0,-2.445 1.9825,-4.4275 4.4275,-4.4275 2.445,0 4.43,1.9825 4.43,4.4275" />
    <path
       inkscape:connector-curvature="0"
       id="path2788-8"
       style="fill:#000000;fill-opacity:1;fill-rule:nonzero;stroke:none"
       d="m 140.25045,637.9144 c 0,2.44524 -1.9825,4.42874 -4.4275,4.42874 -2.4475,0 -4.43,-1.9835 -4.43,-4.42874 0,-2.4455 1.9825,-4.42976 4.43,-4.42976 2.445,0 4.4275,1.98426 4.4275,4.42976" />
    <path
       inkscape:connector-curvature="0"
       id="path2790-2"
       style="fill:#000000;fill-opacity:1;fill-rule:nonzero;stroke:none"
       d="m 199.08045,653.92314 c 0,2.44526 -1.985,4.42976 -4.43,4.42976 -2.445,0 -4.43,-1.9845 -4.43,-4.42976 0,-2.44524 1.985,-4.42874 4.43,-4.42874 2.445,0 4.43,1.9835 4.43,4.42874" />
    <path
       inkscape:connector-curvature="0"
       id="path2792-9"
       style="fill:#000000;fill-opacity:1;fill-rule:nonzero;stroke:none"
       d="m 199.08045,669.9329 c 0,2.44524 -1.985,4.42874 -4.43,4.42874 -2.445,0 -4.43,-1.9835 -4.43,-4.42874 0,-2.44526 1.985,-4.42976 4.43,-4.42976 2.445,0 4.43,1.9845 4.43,4.42976" />
    <path
       inkscape:connector-curvature="0"
       id="path2794-6"
       style="fill:none;stroke:#000000;stroke-width:2.25;stroke-linecap:butt;stroke-linejoin:miter;stroke-miterlimit:10;stroke-opacity:1;stroke-dasharray:none"
       d="m 275.54045,652.1449 0,-6.048" />
    <path
       inkscape:connector-curvature="0"
       id="path2796-6"
       style="fill:none;stroke:#000000;stroke-width:2.25;stroke-linecap:butt;stroke-linejoin:miter;stroke-miterlimit:10;stroke-opacity:1;stroke-dasharray:none"
       d="m 275.54045,643.25014 -8.335,0" />
    <path
       inkscape:connector-curvature="0"
       id="path2798-1"
       style="fill:none;stroke:#000000;stroke-width:2.25;stroke-linecap:butt;stroke-linejoin:miter;stroke-miterlimit:10;stroke-opacity:1;stroke-dasharray:none"
       d="m 300.05045,625.46214 0,-6.0485" />
    <path
       inkscape:connector-curvature="0"
       id="path2800-6"
       style="fill:none;stroke:#737373;stroke-width:2.25;stroke-linecap:butt;stroke-linejoin:miter;stroke-miterlimit:10;stroke-opacity:1;stroke-dasharray:none"
       d="m 312.30795,616.56864 0,4.4475 c 0,4.446 0,4.446 -4.1675,4.446 l -4.1675,0" />
    <path
       inkscape:connector-curvature="0"
       id="path2802-4"
       style="fill:none;stroke:#000000;stroke-width:2.25;stroke-linecap:butt;stroke-linejoin:miter;stroke-miterlimit:10;stroke-opacity:1;stroke-dasharray:none"
       d="m 275.54045,661.0384 -6.1275,0 c -6.13,0 -6.13,0 -18.385,0 -12.255,0 -12.255,0 -12.255,-8.8935 0,-8.89476 0,-8.89476 10.295,-8.89476 l 10.2925,0" />
    <path
       inkscape:connector-curvature="0"
       id="path2804-0"
       style="fill:none;stroke:#000000;stroke-width:2.25;stroke-linecap:butt;stroke-linejoin:miter;stroke-miterlimit:10;stroke-opacity:1;stroke-dasharray:none"
       d="m 263.28295,625.46214 0,-4.446 c 0,-4.4475 0,-4.4475 4.1675,-4.4475 l 4.1675,0" />
    <path
       inkscape:connector-curvature="0"
       id="path2806-3"
       style="fill:none;stroke:#737373;stroke-width:2.25;stroke-linecap:butt;stroke-linejoin:miter;stroke-miterlimit:10;stroke-opacity:1;stroke-dasharray:none"
       d="m 275.54045,625.46214 6.1275,0 c 6.1275,0 6.1275,0 10.295,0 l 4.1675,0" />
    <path
       inkscape:connector-curvature="0"
       id="path2808-4"
       style="fill:none;stroke:#737373;stroke-width:2.25;stroke-linecap:butt;stroke-linejoin:miter;stroke-miterlimit:10;stroke-opacity:1;stroke-dasharray:none"
       d="m 275.54045,598.77864 -12.2575,0 c -12.255,0 -12.255,0 -12.255,8.895 0,8.895 0,8.895 0,13.3425 0,4.446 0,4.446 4.165,4.446 l 4.1675,0" />
    <path
       inkscape:connector-curvature="0"
       id="path2810-2"
       style="fill:none;stroke:#000000;stroke-width:2.25;stroke-linecap:butt;stroke-linejoin:miter;stroke-miterlimit:10;stroke-opacity:1;stroke-dasharray:none"
       d="m 300.05045,643.25014 12.2575,0 c 12.255,0 12.255,0 12.255,-8.8935 0,-8.8945 0,-8.8945 0,-13.3405 0,-4.4475 0,-4.4475 -4.1675,-4.4475 l -4.165,0" />
    <path
       inkscape:connector-curvature="0"
       id="path2812-4"
       style="fill:none;stroke:#000000;stroke-width:2.25;stroke-linecap:butt;stroke-linejoin:miter;stroke-miterlimit:10;stroke-opacity:1;stroke-dasharray:none"
       d="m 300.05045,616.56864 -20.59,0" />
    <path
       inkscape:connector-curvature="0"
       id="path2814-6"
       style="fill:none;stroke:#000000;stroke-width:2.25;stroke-linecap:butt;stroke-linejoin:miter;stroke-miterlimit:10;stroke-opacity:1;stroke-dasharray:none"
       d="m 263.28295,634.35664 8.335,0" />
    <path
       inkscape:connector-curvature="0"
       id="path2816-9"
       style="fill:none;stroke:#000000;stroke-width:2.25;stroke-linecap:butt;stroke-linejoin:miter;stroke-miterlimit:10;stroke-opacity:1;stroke-dasharray:none"
       d="m 275.54045,634.35664 0,6.048" />
    <path
       inkscape:connector-curvature="0"
       id="path2818-6"
       style="fill:none;stroke:#737373;stroke-width:2.25;stroke-linecap:butt;stroke-linejoin:miter;stroke-miterlimit:10;stroke-opacity:1;stroke-dasharray:none"
       d="m 275.54045,625.46214 -8.335,0" />
    <path
       inkscape:connector-curvature="0"
       id="path2820-8"
       style="fill:none;stroke:#000000;stroke-width:2.25;stroke-linecap:butt;stroke-linejoin:miter;stroke-miterlimit:10;stroke-opacity:1;stroke-dasharray:none"
       d="m 263.28295,643.25014 0,4.44726 c 0,4.4475 0,4.4475 4.1675,4.4475 l 4.1675,0" />
    <path
       inkscape:connector-curvature="0"
       id="path2822-1"
       style="fill:none;stroke:#000000;stroke-width:2.25;stroke-linecap:butt;stroke-linejoin:miter;stroke-miterlimit:10;stroke-opacity:1;stroke-dasharray:none"
       d="m 263.28295,643.25014 0,-6.04774" />
    <path
       inkscape:connector-curvature="0"
       id="path2824-9"
       style="fill:none;stroke:#000000;stroke-width:2.25;stroke-linecap:butt;stroke-linejoin:miter;stroke-miterlimit:10;stroke-opacity:1;stroke-dasharray:none"
       d="m 300.05045,643.25014 -8.3325,0" />
    <path
       inkscape:connector-curvature="0"
       id="path2826-8"
       style="fill:none;stroke:#000000;stroke-width:2.25;stroke-linecap:butt;stroke-linejoin:miter;stroke-miterlimit:10;stroke-opacity:1;stroke-dasharray:none"
       d="m 263.28295,634.35664 -6.1275,0 c -6.1275,0 -6.1275,0 -12.2575,0 -6.125,0 -6.125,0 -6.125,-17.788 0,-17.79 0,-17.79 0,-22.2375 0,-4.445 0,-4.445 18.3825,-4.445 18.385,0 18.385,0 18.385,3.0225 l 0,3.025" />
    <path
       inkscape:connector-curvature="0"
       id="path2828-7"
       style="fill:none;stroke:#000000;stroke-width:2.25;stroke-linecap:butt;stroke-linejoin:miter;stroke-miterlimit:10;stroke-opacity:1;stroke-dasharray:none"
       d="m 275.54045,643.25014 8.3325,0" />
    <path
       inkscape:connector-curvature="0"
       id="path2830-0"
       style="fill:none;stroke:#737373;stroke-width:2.25;stroke-linecap:butt;stroke-linejoin:miter;stroke-miterlimit:10;stroke-opacity:1;stroke-dasharray:none"
       d="m 312.30795,616.56864 0,-6.05" />
    <path
       inkscape:connector-curvature="0"
       id="path2832-8"
       style="fill:none;stroke:#000000;stroke-width:2.25;stroke-linecap:butt;stroke-linejoin:miter;stroke-miterlimit:10;stroke-opacity:1;stroke-dasharray:none"
       d="m 275.54045,616.56864 0,-4.4475 c 0,-4.4475 0,-4.4475 0,-7.4725 l 0,-3.0225" />
    <path
       inkscape:connector-curvature="0"
       id="path2834-5"
       style="fill:none;stroke:#000000;stroke-width:2.25;stroke-linecap:butt;stroke-linejoin:miter;stroke-miterlimit:10;stroke-opacity:1;stroke-dasharray:none"
       d="m 312.30795,607.67364 -6.1275,0 c -6.13,0 -6.13,0 -6.13,3.025 l 0,3.0225" />
    <path
       inkscape:connector-curvature="0"
       id="path2836-0"
       style="fill:none;stroke:#000000;stroke-width:2.25;stroke-linecap:butt;stroke-linejoin:miter;stroke-miterlimit:10;stroke-opacity:1;stroke-dasharray:none"
       d="m 312.30795,607.67364 6.1275,0 c 6.1275,0 6.1275,0 12.255,0 6.1275,0 6.1275,0 6.1275,17.7885 0,17.788 0,17.788 0,26.68276 0,8.8935 0,8.8935 0,13.34074 0,4.44726 0,4.44726 -30.6375,4.44726 -30.64,0 -30.64,0 -30.64,-3.0245 l 0,-3.0235" />
    <path
       inkscape:connector-curvature="0"
       id="path2838-9"
       style="fill:none;stroke:#000000;stroke-width:2.25;stroke-linecap:butt;stroke-linejoin:miter;stroke-miterlimit:10;stroke-opacity:1;stroke-dasharray:none"
       d="m 300.05045,625.46214 0,14.9425" />
    <path
       inkscape:connector-curvature="0"
       id="path2840-7"
       style="fill:none;stroke:#000000;stroke-width:2.25;stroke-linecap:butt;stroke-linejoin:miter;stroke-miterlimit:10;stroke-opacity:1;stroke-dasharray:none"
       d="m 275.54045,616.56864 0,6.04776" />
    <path
       inkscape:connector-curvature="0"
       id="path2842-7"
       style="fill:none;stroke:#000000;stroke-width:2.25;stroke-linecap:butt;stroke-linejoin:miter;stroke-miterlimit:10;stroke-opacity:1;stroke-dasharray:none"
       d="m 263.28295,625.46214 0,6.04776" />
    <path
       inkscape:connector-curvature="0"
       id="path2844-6"
       style="fill:none;stroke:#000000;stroke-width:2.25;stroke-linecap:butt;stroke-linejoin:miter;stroke-miterlimit:10;stroke-opacity:1;stroke-dasharray:none"
       d="m 275.54045,634.35664 0,-6.04874" />
    <path
       inkscape:connector-curvature="0"
       id="path2846-9"
       style="fill:none;stroke:#000000;stroke-width:2.25;stroke-linecap:butt;stroke-linejoin:miter;stroke-miterlimit:10;stroke-opacity:1;stroke-dasharray:none"
       d="m 287.79545,643.25014 0,4.44726 c 0,4.4475 0,4.4475 -4.1675,4.4475 l -4.1675,0" />
    <path
       inkscape:connector-curvature="0"
       id="path2848-8"
       style="fill:none;stroke:#000000;stroke-width:2.25;stroke-linecap:butt;stroke-linejoin:miter;stroke-miterlimit:10;stroke-opacity:1;stroke-dasharray:none"
       d="m 275.54045,661.0384 12.255,0 c 12.255,0 12.255,0 12.255,-4.44626 0,-4.44724 0,-4.44724 0,-7.47174 l 0,-3.0235" />
    <path
       inkscape:connector-curvature="0"
       id="path2850-4"
       style="fill:none;stroke:#000000;stroke-width:2.25;stroke-linecap:butt;stroke-linejoin:miter;stroke-miterlimit:10;stroke-opacity:1;stroke-dasharray:none"
       d="m 287.79545,643.25014 0,-4.44724 c 0,-4.44626 0,-4.44626 -4.1675,-4.44626 l -4.1675,0" />
    <path
       inkscape:connector-curvature="0"
       id="path2852-1"
       style="fill:none;stroke:#000000;stroke-width:2.25;stroke-linecap:butt;stroke-linejoin:miter;stroke-miterlimit:10;stroke-opacity:1;stroke-dasharray:none"
       d="m 275.54045,652.1449 0,6.04774" />
    <path
       inkscape:connector-curvature="0"
       id="path2854-9"
       style="fill:none;stroke:#737373;stroke-width:2.25;stroke-linecap:butt;stroke-linejoin:miter;stroke-miterlimit:10;stroke-opacity:1;stroke-dasharray:none"
       d="m 275.54045,598.77864 18.3825,0 c 18.385,0 18.385,0 18.385,3.025 l 0,3.0225" />
    <path
       inkscape:connector-curvature="0"
       id="path2856-3"
       style="fill:none;stroke:#000000;stroke-width:2.25;stroke-linecap:butt;stroke-linejoin:miter;stroke-miterlimit:10;stroke-opacity:1;stroke-dasharray:none"
       d="m 300.05045,616.56864 8.335,0" />
    <text
       id="text2860-0"
       x="117.29796"
       y="574.88123"
       style="font-size:30px">
      <tspan
         style="font-size:15px;font-variant:normal;font-weight:normal;writing-mode:lr-tb;fill:#000000;fill-opacity:1;fill-rule:nonzero;stroke:none;font-family:Helvetica;-inkscape-font-specification:Helvetica"
         x="117.29796 126.46291 130.63297 138.97292 147.31294 155.65291"
         y="574.88123"
         sodipodi:role="line"
         id="tspan2862-0">T[424]</tspan>
    </text>
    <text
       id="text2864-9"
       x="170.24818"
       y="574.88123"
       style="font-size:30px">
      <tspan
         style="font-size:12.5px;font-variant:normal;font-weight:normal;writing-mode:lr-tb;fill:#000000;fill-opacity:1;fill-rule:nonzero;stroke:none;font-family:Helvetica;-inkscape-font-specification:Helvetica"
         x="170.24818 177.1982 184.14821 191.09816 198.04817 204.29817 207.77321 211.24818 218.1982 225.14815 235.5732 242.52319 245.29816 252.24817 258.49817 264.74817 270.99817 274.47314 277.94818 284.89819 295.32318 302.27319 306.43567 309.21063 316.16064 323.11066 326.58569 330.06067"
         y="574.88123"
         sodipodi:role="line"
         id="tspan2866-4">edges: 16 blocks: 1 orient:</tspan>
    </text>
    <text
       id="text2868-2"
       x="333.53619"
       y="574.88123"
       style="font-size:30px">
      <tspan
         style="font-size:15px;font-variant:normal;font-weight:normal;writing-mode:lr-tb;fill:#000000;fill-opacity:1;fill-rule:nonzero;stroke:none;font-family:Helvetica;-inkscape-font-specification:Helvetica"
         x="333.53619"
         y="574.88123"
         id="tspan2870-4">+</tspan>
    </text>
    <path
       inkscape:connector-curvature="0"
       id="path2872-0"
       style="fill:none;stroke:#000000;stroke-width:2.5;stroke-linecap:butt;stroke-linejoin:miter;stroke-miterlimit:10;stroke-opacity:1;stroke-dasharray:none"
       d="m 427.42799,631.55886 -9.805,-4.002 c -9.8025,-4.003 -9.8025,-4.003 -9.8025,-12.007 l 0,-8.00474" />
    <path
       inkscape:connector-curvature="0"
       id="path2874-5"
       style="fill:none;stroke:#000000;stroke-width:2.5;stroke-linecap:butt;stroke-linejoin:miter;stroke-miterlimit:10;stroke-opacity:1;stroke-dasharray:none"
       d="m 466.64799,639.56362 0,-16.00976" />
    <path
       inkscape:connector-curvature="0"
       id="path2876-8"
       style="fill:none;stroke:#000000;stroke-width:2.5;stroke-linecap:butt;stroke-linejoin:miter;stroke-miterlimit:10;stroke-opacity:1;stroke-dasharray:none"
       d="m 427.42799,591.53536 -9.805,0 c -9.8025,0 -9.8025,0 -9.8025,8.00476 l 0,8.005" />
    <path
       inkscape:connector-curvature="0"
       id="path2878-7"
       style="fill:none;stroke:#000000;stroke-width:2.5;stroke-linecap:butt;stroke-linejoin:miter;stroke-miterlimit:10;stroke-opacity:1;stroke-dasharray:none"
       d="m 427.42799,607.54512 0,-16.00976" />
    <path
       inkscape:connector-curvature="0"
       id="path2880-6"
       style="fill:none;stroke:#000000;stroke-width:2.5;stroke-linecap:butt;stroke-linejoin:miter;stroke-miterlimit:10;stroke-opacity:1;stroke-dasharray:none"
       d="m 407.82049,671.58312 39.2175,0 c 39.22,0 39.22,0 39.22,-8.00476 0,-8.005 0,-8.005 0,-24.01474 0,-16.00976 0,-16.00976 -9.805,-16.00976 l -9.805,0" />
    <path
       inkscape:connector-curvature="0"
       id="path2882-6"
       style="fill:none;stroke:#000000;stroke-width:2.5;stroke-linecap:butt;stroke-linejoin:miter;stroke-miterlimit:10;stroke-opacity:1;stroke-dasharray:none"
       d="m 388.21049,655.57336 0,8.005 c 0,8.00476 0,8.00476 9.805,8.00476 l 9.805,0" />
    <path
       inkscape:connector-curvature="0"
       id="path2884-7"
       style="fill:none;stroke:#000000;stroke-width:2.5;stroke-linecap:butt;stroke-linejoin:miter;stroke-miterlimit:10;stroke-opacity:1;stroke-dasharray:none"
       d="m 466.64799,639.56362 -9.805,0 c -9.805,0 -9.805,0 -19.61,-4.002 l -9.805,-4.00276" />
    <path
       inkscape:connector-curvature="0"
       id="path2886-7"
       style="fill:none;stroke:#000000;stroke-width:2.5;stroke-linecap:butt;stroke-linejoin:miter;stroke-miterlimit:10;stroke-opacity:1;stroke-dasharray:none"
       d="m 407.82049,671.58312 0,-16.00976" />
    <path
       inkscape:connector-curvature="0"
       id="path2888-8"
       style="fill:none;stroke:#000000;stroke-width:2.5;stroke-linecap:butt;stroke-linejoin:miter;stroke-miterlimit:10;stroke-opacity:1;stroke-dasharray:none"
       d="m 407.82049,655.57336 29.4125,0 c 29.415,0 29.415,0 29.415,-8.00474 l 0,-8.005" />
    <path
       inkscape:connector-curvature="0"
       id="path2890-5"
       style="fill:none;stroke:#000000;stroke-width:2.5;stroke-linecap:butt;stroke-linejoin:miter;stroke-miterlimit:10;stroke-opacity:1;stroke-dasharray:none"
       d="m 407.82049,607.54512 -9.805,0 c -9.805,0 -9.805,0 -9.805,24.01374 l 0,24.0145" />
    <path
       inkscape:connector-curvature="0"
       id="path2892-4"
       style="fill:none;stroke:#000000;stroke-width:2.5;stroke-linecap:butt;stroke-linejoin:miter;stroke-miterlimit:10;stroke-opacity:1;stroke-dasharray:none"
       d="m 407.82049,655.57336 -19.61,0" />
    <path
       inkscape:connector-curvature="0"
       id="path2894-0"
       style="fill:none;stroke:#000000;stroke-width:2.5;stroke-linecap:butt;stroke-linejoin:miter;stroke-miterlimit:10;stroke-opacity:1;stroke-dasharray:none"
       d="m 427.42799,631.55886 9.805,-4.002 c 9.805,-4.003 9.805,-4.003 19.61,-4.003 l 9.805,0" />
    <path
       inkscape:connector-curvature="0"
       id="path2896-5"
       style="fill:none;stroke:#000000;stroke-width:2.5;stroke-linecap:butt;stroke-linejoin:miter;stroke-miterlimit:10;stroke-opacity:1;stroke-dasharray:none"
       d="m 427.42799,631.55886 0,-4.002 c 0,-4.003 0,-4.003 0,-12.007 l 0,-8.00474" />
    <path
       inkscape:connector-curvature="0"
       id="path2898-1"
       style="fill:none;stroke:#000000;stroke-width:2.5;stroke-linecap:butt;stroke-linejoin:miter;stroke-miterlimit:10;stroke-opacity:1;stroke-dasharray:none"
       d="m 466.64799,623.55386 0,-16.00874 c 0,-16.00976 0,-16.00976 -19.61,-16.00976 l -19.61,0" />
    <path
       inkscape:connector-curvature="0"
       id="path2900-2"
       style="fill:none;stroke:#000000;stroke-width:2.5;stroke-linecap:butt;stroke-linejoin:miter;stroke-miterlimit:10;stroke-opacity:1;stroke-dasharray:none"
       d="m 427.42799,631.55886 -9.805,4.00276 c -9.8025,4.002 -9.8025,4.002 -9.8025,12.007 l 0,8.00474" />
    <path
       inkscape:connector-curvature="0"
       id="path2902-7"
       style="fill:none;stroke:#000000;stroke-width:2.5;stroke-linecap:butt;stroke-linejoin:miter;stroke-miterlimit:10;stroke-opacity:1;stroke-dasharray:none"
       d="m 427.42799,607.54512 -19.6075,0" />
    <path
       inkscape:connector-curvature="0"
       id="path2904-8"
       style="fill:#000000;fill-opacity:1;fill-rule:nonzero;stroke:none"
       d="m 392.64049,655.57336 c 0,2.44526 -1.985,4.42976 -4.43,4.42976 -2.445,0 -4.43,-1.9845 -4.43,-4.42976 0,-2.44524 1.985,-4.42974 4.43,-4.42974 2.445,0 4.43,1.9845 4.43,4.42974" />
    <path
       inkscape:connector-curvature="0"
       id="path2906-9"
       style="fill:#000000;fill-opacity:1;fill-rule:nonzero;stroke:none"
       d="m 412.24799,607.54512 c 0,2.44524 -1.9825,4.42874 -4.4275,4.42874 -2.4475,0 -4.43,-1.9835 -4.43,-4.42874 0,-2.44526 1.9825,-4.42976 4.43,-4.42976 2.445,0 4.4275,1.9845 4.4275,4.42976" />
    <path
       inkscape:connector-curvature="0"
       id="path2908-3"
       style="fill:#000000;fill-opacity:1;fill-rule:nonzero;stroke:none"
       d="m 471.07799,639.56362 c 0,2.44524 -1.985,4.42974 -4.43,4.42974 -2.445,0 -4.43,-1.9845 -4.43,-4.42974 0,-2.44526 1.985,-4.42876 4.43,-4.42876 2.445,0 4.43,1.9835 4.43,4.42876" />
    <path
       inkscape:connector-curvature="0"
       id="path2910-9"
       style="fill:#000000;fill-opacity:1;fill-rule:nonzero;stroke:none"
       d="m 431.85799,591.53536 c 0,2.44526 -1.985,4.4295 -4.43,4.4295 -2.445,0 -4.4275,-1.98424 -4.4275,-4.4295 0,-2.4455 1.9825,-4.42974 4.4275,-4.42974 2.445,0 4.43,1.98424 4.43,4.42974" />
    <path
       inkscape:connector-curvature="0"
       id="path2912-9"
       style="fill:#000000;fill-opacity:1;fill-rule:nonzero;stroke:none"
       d="m 412.24799,671.58212 c 0,2.44524 -1.9825,4.42974 -4.4275,4.42974 -2.4475,0 -4.43,-1.9845 -4.43,-4.42974 0,-2.44526 1.9825,-4.42876 4.43,-4.42876 2.445,0 4.4275,1.9835 4.4275,4.42876" />
    <path
       inkscape:connector-curvature="0"
       id="path2914-0"
       style="fill:#000000;fill-opacity:1;fill-rule:nonzero;stroke:none"
       d="m 412.24799,655.57336 c 0,2.44526 -1.9825,4.42976 -4.4275,4.42976 -2.4475,0 -4.43,-1.9845 -4.43,-4.42976 0,-2.44524 1.9825,-4.42974 4.43,-4.42974 2.445,0 4.4275,1.9845 4.4275,4.42974" />
    <path
       inkscape:connector-curvature="0"
       id="path2916-3"
       style="fill:#000000;fill-opacity:1;fill-rule:nonzero;stroke:none"
       d="m 431.85799,607.54512 c 0,2.44524 -1.985,4.42874 -4.43,4.42874 -2.445,0 -4.4275,-1.9835 -4.4275,-4.42874 0,-2.44526 1.9825,-4.42976 4.4275,-4.42976 2.445,0 4.43,1.9845 4.43,4.42976" />
    <path
       inkscape:connector-curvature="0"
       id="path2918-9"
       style="fill:#000000;fill-opacity:1;fill-rule:nonzero;stroke:none"
       d="m 471.07799,623.55386 c 0,2.44526 -1.985,4.42976 -4.43,4.42976 -2.445,0 -4.43,-1.9845 -4.43,-4.42976 0,-2.44524 1.985,-4.42874 4.43,-4.42874 2.445,0 4.43,1.9835 4.43,4.42874" />
    <path
       inkscape:connector-curvature="0"
       id="path2920-3"
       style="fill:#000000;fill-opacity:1;fill-rule:nonzero;stroke:none"
       d="m 431.85799,631.55886 c 0,2.44526 -1.985,4.4295 -4.43,4.4295 -2.445,0 -4.4275,-1.98424 -4.4275,-4.4295 0,-2.4455 1.9825,-4.42874 4.4275,-4.42874 2.445,0 4.43,1.98324 4.43,4.42874" />
    <path
       inkscape:connector-curvature="0"
       id="path2922-3"
       style="fill:none;stroke:#737373;stroke-width:2.25;stroke-linecap:butt;stroke-linejoin:miter;stroke-miterlimit:10;stroke-opacity:1;stroke-dasharray:none"
       d="m 559.79299,641.56462 0,6.80374" />
    <path
       inkscape:connector-curvature="0"
       id="path2924-1"
       style="fill:none;stroke:#000000;stroke-width:2.25;stroke-linecap:butt;stroke-linejoin:miter;stroke-miterlimit:10;stroke-opacity:1;stroke-dasharray:none"
       d="m 584.30549,611.54712 0,-5.003 c 0,-5.003 0,-5.003 -4.1675,-5.003 l -4.1675,0" />
    <path
       inkscape:connector-curvature="0"
       id="path2926-4"
       style="fill:none;stroke:#000000;stroke-width:2.25;stroke-linecap:butt;stroke-linejoin:miter;stroke-miterlimit:10;stroke-opacity:1;stroke-dasharray:none"
       d="m 535.28049,641.56462 0,-6.80376" />
    <path
       inkscape:connector-curvature="0"
       id="path2928-9"
       style="fill:none;stroke:#000000;stroke-width:2.25;stroke-linecap:butt;stroke-linejoin:miter;stroke-miterlimit:10;stroke-opacity:1;stroke-dasharray:none"
       d="m 523.02549,641.56462 -6.13,0 c -6.125,0 -6.125,0 -6.125,-5.003 0,-5.00276 0,-5.00276 0,-10.00576 0,-5.003 0,-5.003 10.295,-5.003 l 10.2925,0" />
    <path
       inkscape:connector-curvature="0"
       id="path2930-4"
       style="fill:none;stroke:#000000;stroke-width:2.25;stroke-linecap:butt;stroke-linejoin:miter;stroke-miterlimit:10;stroke-opacity:1;stroke-dasharray:none"
       d="m 547.53799,631.55886 0,-6.80374" />
    <path
       inkscape:connector-curvature="0"
       id="path2932-8"
       style="fill:none;stroke:#000000;stroke-width:2.25;stroke-linecap:butt;stroke-linejoin:miter;stroke-miterlimit:10;stroke-opacity:1;stroke-dasharray:none"
       d="m 535.28049,641.56462 0,16.8105" />
    <path
       inkscape:connector-curvature="0"
       id="path2934-2"
       style="fill:none;stroke:#000000;stroke-width:2.25;stroke-linecap:butt;stroke-linejoin:miter;stroke-miterlimit:10;stroke-opacity:1;stroke-dasharray:none"
       d="m 547.53799,641.56462 8.3325,0" />
    <path
       inkscape:connector-curvature="0"
       id="path2936-9"
       style="fill:none;stroke:#000000;stroke-width:2.25;stroke-linecap:butt;stroke-linejoin:miter;stroke-miterlimit:10;stroke-opacity:1;stroke-dasharray:none"
       d="m 572.04799,641.56462 -8.3325,0" />
    <path
       inkscape:connector-curvature="0"
       id="path2938-8"
       style="fill:none;stroke:#000000;stroke-width:2.25;stroke-linecap:butt;stroke-linejoin:miter;stroke-miterlimit:10;stroke-opacity:1;stroke-dasharray:none"
       d="m 572.04799,601.54112 0,-5.003 c 0,-5.00276 0,-5.00276 6.13,-5.00276 6.1275,0 6.1275,0 12.255,0 6.1275,0 6.1275,0 6.1275,8.40526 l 0,8.40424" />
    <path
       inkscape:connector-curvature="0"
       id="path2940-1"
       style="fill:none;stroke:#000000;stroke-width:2.25;stroke-linecap:butt;stroke-linejoin:miter;stroke-miterlimit:10;stroke-opacity:1;stroke-dasharray:none"
       d="m 559.79299,651.57036 6.1275,0 c 6.1275,0 6.1275,0 6.1275,-3.40124 l 0,-3.40226" />
    <path
       inkscape:connector-curvature="0"
       id="path2942-5"
       style="fill:none;stroke:#737373;stroke-width:2.25;stroke-linecap:butt;stroke-linejoin:miter;stroke-miterlimit:10;stroke-opacity:1;stroke-dasharray:none"
       d="m 535.28049,631.55886 -6.1275,0 c -6.1275,0 -6.1275,0 -6.1275,3.40226 l 0,3.40224" />
    <path
       inkscape:connector-curvature="0"
       id="path2944-7"
       style="fill:none;stroke:#737373;stroke-width:2.25;stroke-linecap:butt;stroke-linejoin:miter;stroke-miterlimit:10;stroke-opacity:1;stroke-dasharray:none"
       d="m 535.28049,631.55886 8.335,0" />
    <path
       inkscape:connector-curvature="0"
       id="path2946-8"
       style="fill:none;stroke:#000000;stroke-width:2.25;stroke-linecap:butt;stroke-linejoin:miter;stroke-miterlimit:10;stroke-opacity:1;stroke-dasharray:none"
       d="m 547.53799,621.55286 6.1275,0 c 6.1275,0 6.1275,0 10.295,0 l 4.1675,0" />
    <path
       inkscape:connector-curvature="0"
       id="path2948-4"
       style="fill:none;stroke:#000000;stroke-width:2.25;stroke-linecap:butt;stroke-linejoin:miter;stroke-miterlimit:10;stroke-opacity:1;stroke-dasharray:none"
       d="m 572.04799,611.54712 -12.255,0 c -12.255,0 -12.255,0 -12.255,3.40224 l 0,3.40226" />
    <path
       inkscape:connector-curvature="0"
       id="path2950-7"
       style="fill:none;stroke:#737373;stroke-width:2.25;stroke-linecap:butt;stroke-linejoin:miter;stroke-miterlimit:10;stroke-opacity:1;stroke-dasharray:none"
       d="m 535.28049,661.57636 6.13,0 c 6.1275,0 6.1275,0 12.255,0 6.1275,0 6.1275,0 6.1275,-3.4015 l 0,-3.40224" />
    <path
       inkscape:connector-curvature="0"
       id="path2952-6"
       style="fill:none;stroke:#737373;stroke-width:2.25;stroke-linecap:butt;stroke-linejoin:miter;stroke-miterlimit:10;stroke-opacity:1;stroke-dasharray:none"
       d="m 559.79299,641.56462 0,-5.003 c 0,-5.00276 0,-5.00276 -4.1675,-5.00276 l -4.1675,0" />
    <path
       inkscape:connector-curvature="0"
       id="path2954-0"
       style="fill:none;stroke:#000000;stroke-width:2.25;stroke-linecap:butt;stroke-linejoin:miter;stroke-miterlimit:10;stroke-opacity:1;stroke-dasharray:none"
       d="m 547.53799,621.55286 -8.335,0" />
    <path
       inkscape:connector-curvature="0"
       id="path2956-7"
       style="fill:none;stroke:#000000;stroke-width:2.25;stroke-linecap:butt;stroke-linejoin:miter;stroke-miterlimit:10;stroke-opacity:1;stroke-dasharray:none"
       d="m 572.04799,601.54112 0,6.80374" />
    <path
       inkscape:connector-curvature="0"
       id="path2958-3"
       style="fill:none;stroke:#000000;stroke-width:2.25;stroke-linecap:butt;stroke-linejoin:miter;stroke-miterlimit:10;stroke-opacity:1;stroke-dasharray:none"
       d="m 523.02549,641.56462 8.3325,0" />
    <path
       inkscape:connector-curvature="0"
       id="path2960-1"
       style="fill:none;stroke:#000000;stroke-width:2.25;stroke-linecap:butt;stroke-linejoin:miter;stroke-miterlimit:10;stroke-opacity:1;stroke-dasharray:none"
       d="m 584.30549,611.54712 0,5.00274 c 0,5.003 0,5.003 -4.1675,5.003 l -4.1675,0" />
    <path
       inkscape:connector-curvature="0"
       id="path2962-9"
       style="fill:none;stroke:#000000;stroke-width:2.25;stroke-linecap:butt;stroke-linejoin:miter;stroke-miterlimit:10;stroke-opacity:1;stroke-dasharray:none"
       d="m 535.28049,621.55286 0,6.80376" />
    <path
       inkscape:connector-curvature="0"
       id="path2964-0"
       style="fill:none;stroke:#000000;stroke-width:2.25;stroke-linecap:butt;stroke-linejoin:miter;stroke-miterlimit:10;stroke-opacity:1;stroke-dasharray:none"
       d="m 596.56049,611.54712 6.1275,0 c 6.1275,0 6.1275,0 6.1275,15.00874 0,15.00876 0,15.00876 0,20.01176 0,5.00274 0,5.00274 0,10.00574 0,5.003 0,5.003 0,10.006 0,5.00376 0,5.00376 -36.7675,5.00376 -36.7675,0 -36.7675,0 -36.7675,-3.40226 l 0,-3.4025" />
    <path
       inkscape:connector-curvature="0"
       id="path2966-1"
       style="fill:none;stroke:#000000;stroke-width:2.25;stroke-linecap:butt;stroke-linejoin:miter;stroke-miterlimit:10;stroke-opacity:1;stroke-dasharray:none"
       d="m 572.04799,641.56462 12.2575,0 c 12.255,0 12.255,0 12.255,-10.00576 0,-10.006 0,-10.006 0,-13.40824 l 0,-3.4015" />
    <path
       inkscape:connector-curvature="0"
       id="path2968-0"
       style="fill:none;stroke:#000000;stroke-width:2.25;stroke-linecap:butt;stroke-linejoin:miter;stroke-miterlimit:10;stroke-opacity:1;stroke-dasharray:none"
       d="m 547.53799,641.56462 -8.335,0" />
    <path
       inkscape:connector-curvature="0"
       id="path2970-6"
       style="fill:none;stroke:#000000;stroke-width:2.25;stroke-linecap:butt;stroke-linejoin:miter;stroke-miterlimit:10;stroke-opacity:1;stroke-dasharray:none"
       d="m 572.04799,621.55286 0,16.8105" />
    <path
       inkscape:connector-curvature="0"
       id="path2972-1"
       style="fill:none;stroke:#000000;stroke-width:2.25;stroke-linecap:butt;stroke-linejoin:miter;stroke-miterlimit:10;stroke-opacity:1;stroke-dasharray:none"
       d="m 559.79299,651.57036 -6.1275,0 c -6.1275,0 -6.1275,0 -6.1275,-3.40124 l 0,-3.40226" />
    <path
       inkscape:connector-curvature="0"
       id="path2974-0"
       style="fill:none;stroke:#737373;stroke-width:2.25;stroke-linecap:butt;stroke-linejoin:miter;stroke-miterlimit:10;stroke-opacity:1;stroke-dasharray:none"
       d="m 535.28049,661.57636 -6.1275,0 c -6.1275,0 -6.1275,0 -6.1275,-8.40424 l 0,-8.40526" />
    <path
       inkscape:connector-curvature="0"
       id="path2976-6"
       style="fill:none;stroke:#000000;stroke-width:2.25;stroke-linecap:butt;stroke-linejoin:miter;stroke-miterlimit:10;stroke-opacity:1;stroke-dasharray:none"
       d="m 572.04799,611.54712 8.335,0" />
    <path
       inkscape:connector-curvature="0"
       id="path2978-4"
       style="fill:none;stroke:#000000;stroke-width:2.25;stroke-linecap:butt;stroke-linejoin:miter;stroke-miterlimit:10;stroke-opacity:1;stroke-dasharray:none"
       d="m 535.28049,621.55286 0,-5.003 c 0,-5.00274 0,-5.00274 0,-10.00574 0,-5.003 0,-5.003 16.4225,-5.003 l 16.425,0" />
    <path
       inkscape:connector-curvature="0"
       id="path2980-9"
       style="fill:none;stroke:#000000;stroke-width:2.25;stroke-linecap:butt;stroke-linejoin:miter;stroke-miterlimit:10;stroke-opacity:1;stroke-dasharray:none"
       d="m 572.04799,621.55286 0,-6.80374" />
    <path
       inkscape:connector-curvature="0"
       id="path2982-9"
       style="fill:none;stroke:#000000;stroke-width:2.25;stroke-linecap:butt;stroke-linejoin:miter;stroke-miterlimit:10;stroke-opacity:1;stroke-dasharray:none"
       d="m 547.53799,631.55886 0,6.8045" />
    <path
       inkscape:connector-curvature="0"
       id="path2984-9"
       style="fill:none;stroke:#000000;stroke-width:2.25;stroke-linecap:butt;stroke-linejoin:miter;stroke-miterlimit:10;stroke-opacity:1;stroke-dasharray:none"
       d="m 596.56049,611.54712 -8.3325,0" />
    <text
       id="text2988-0"
       x="389.29547"
       y="576.52942"
       style="font-size:30px">
      <tspan
         style="font-size:15px;font-variant:normal;font-weight:normal;writing-mode:lr-tb;fill:#000000;fill-opacity:1;fill-rule:nonzero;stroke:none;font-family:Helvetica;-inkscape-font-specification:Helvetica"
         x="389.29547 398.46045 402.63049 410.97046 419.31042 427.65039"
         y="576.52942"
         sodipodi:role="line"
         id="tspan2990-5">T[468]</tspan>
    </text>
    <text
       id="text2992-8"
       x="442.24573"
       y="576.52942"
       style="font-size:30px">
      <tspan
         style="font-size:12.5px;font-variant:normal;font-weight:normal;writing-mode:lr-tb;fill:#000000;fill-opacity:1;fill-rule:nonzero;stroke:none;font-family:Helvetica;-inkscape-font-specification:Helvetica"
         x="442.24573 449.1958 456.14587 463.09583 470.04578 476.29578 479.77087 483.24585 490.1958 497.14575 507.5708 514.52087 517.29584 524.24591 530.49591 536.74591 542.99591 546.47089 549.94586 556.89594 567.32086 574.27094 578.43341 581.20831 588.15839 595.10834 598.58344 602.05841"
         y="576.52942"
         sodipodi:role="line"
         id="tspan2994-4">edges: 16 blocks: 1 orient:</tspan>
    </text>
    <text
       id="text2996-3"
       x="605.53387"
       y="576.52942"
       style="font-size:30px">
      <tspan
         style="font-size:15px;font-variant:normal;font-weight:normal;writing-mode:lr-tb;fill:#000000;fill-opacity:1;fill-rule:nonzero;stroke:none;font-family:Helvetica;-inkscape-font-specification:Helvetica"
         x="605.53387"
         y="576.52942"
         id="tspan2998-2">+</tspan>
    </text>
    <text
       id="text2716-5"
       x="245.29938"
       y="458.53912"
       style="font-size:15px">
      <tspan
         style="font-size:20px;font-variant:normal;font-weight:normal;writing-mode:lr-tb;fill:#000000;fill-opacity:1;fill-rule:nonzero;stroke:none;font-family:Helvetica;-inkscape-font-specification:Helvetica"
         x="245.29938 256.41937"
         y="458.53912"
         sodipodi:role="line"
         id="tspan2718-3">16</tspan>
    </text>
    <text
       id="text2720-3"
       x="267.53964"
       y="461.03912"
       style="font-size:15px">
      <tspan
         style="font-size:10px;font-variant:normal;font-weight:normal;writing-mode:lr-tb;fill:#000000;fill-opacity:1;fill-rule:nonzero;stroke:none;font-family:Helvetica;-inkscape-font-specification:Helvetica"
         x="267.53964 273.09964 278.65964"
         y="461.03912"
         sodipodi:role="line"
         id="tspan2722-2">141</tspan>
      <tspan
         style="font-size:10px;font-variant:normal;font-weight:normal;writing-mode:lr-tb;fill:#000000;fill-opacity:1;fill-rule:nonzero;stroke:none;font-family:Helvetica;-inkscape-font-specification:Helvetica"
         x="267.53964"
         y="447.91412"
         id="tspan2724-2">t</tspan>
      <tspan
         style="font-size:10px;font-variant:normal;font-weight:normal;writing-mode:lr-tb;fill:#000000;fill-opacity:1;fill-rule:nonzero;stroke:none;font-family:Helvetica;-inkscape-font-specification:Helvetica"
         x="290.29938 293.62936 299.18939 302.51938 317.79938 323.35938 326.13937 331.69937 333.91937 336.13937 341.69937 346.69937"
         y="459.78912"
         sodipodi:role="line"
         id="tspan2726-4">(0) 2 blinks</tspan>
    </text>
    <text
       id="text2728-8"
       x="245.29938"
       y="493.53915"
       style="font-size:15px">
      <tspan
         style="font-size:10px;font-variant:normal;font-weight:normal;writing-mode:lr-tb;fill:#000000;fill-opacity:1;fill-rule:nonzero;stroke:none;font-family:Courier New;-inkscape-font-specification:Courier"
         x="245.29938 251.29938 323.29938 329.29938 335.29938 341.29938 377.29938 383.29938 389.29938 395.29938 401.29938 407.29935 413.29935 419.29935 425.29935 443.29935 449.29935 455.29935 461.29938"
         y="493.53915"
         sodipodi:role="line"
         id="tspan2730-9">r mod theta/pi #sts</tspan>
      <tspan
         style="font-size:10px;font-variant:normal;font-weight:normal;writing-mode:lr-tb;fill:#000000;fill-opacity:1;fill-rule:nonzero;stroke:none;font-family:Courier New;-inkscape-font-specification:Courier"
         x="245.29938 251.29938 257.29938 275.29938 281.29938 287.29938 293.29938 299.29938 305.29938 311.29938 317.29938 323.29938 329.29938 335.29938 341.29938 359.29938 365.29938 371.29938 377.29938 383.29938 389.29938 395.29938 401.29938 407.29935 413.29935 419.29935 425.29935 467.29938"
         y="502.66415"
         sodipodi:role="line"
         id="tspan2732-2">03 0.707106781 0.000000000 4</tspan>
      <tspan
         style="font-size:10px;font-variant:normal;font-weight:normal;writing-mode:lr-tb;fill:#000000;fill-opacity:1;fill-rule:nonzero;stroke:none;font-family:Courier New;-inkscape-font-specification:Courier"
         x="245.29938 251.29938 257.29938 275.29938 281.29938 287.29938 293.29938 299.29938 305.29938 311.29938 317.29938 323.29938 329.29938 335.29938 341.29938 359.29938 365.29938 371.29938 377.29938 383.29938 389.29938 395.29938 401.29938 407.29935 413.29935 419.29935 425.29935 455.29935 461.29938 467.29938"
         y="511.78912"
         sodipodi:role="line"
         id="tspan2734-8">04 0.500000000 0.000000000 326</tspan>
      <tspan
         style="font-size:10px;font-variant:normal;font-weight:normal;writing-mode:lr-tb;fill:#000000;fill-opacity:1;fill-rule:nonzero;stroke:none;font-family:Courier New;-inkscape-font-specification:Courier"
         x="245.29938 251.29938 257.29938 275.29938 281.29938 287.29938 293.29938 299.29938 305.29938 311.29938 317.29938 323.29938 329.29938 335.29938 341.29938 359.29938 365.29938 371.29938 377.29938 383.29938 389.29938 395.29938 401.29938 407.29935 413.29935 419.29935 425.29935 449.29935 455.29935 461.29938 467.29938"
         y="520.91412"
         sodipodi:role="line"
         id="tspan2736-8">05 0.828231334 0.000000000 1736</tspan>
      <tspan
         style="font-size:10px;font-variant:normal;font-weight:normal;writing-mode:lr-tb;fill:#000000;fill-opacity:1;fill-rule:nonzero;stroke:none;font-family:Courier New;-inkscape-font-specification:Courier"
         x="245.29938 251.29938 257.29938 275.29938 281.29938 287.29938 293.29938 299.29938 305.29938 311.29938 317.29938 323.29938 329.29938 335.29938 341.29938 359.29938 365.29938 371.29938 377.29938 383.29938 389.29938 395.29938 401.29938 407.29935 413.29935 419.29935 425.29935 443.29935 449.29935 455.29935 461.29938 467.29938"
         y="530.03912"
         sodipodi:role="line"
         id="tspan2738-5">06 0.288675135 0.000000000 19469</tspan>
      <tspan
         style="font-size:10px;font-variant:normal;font-weight:normal;writing-mode:lr-tb;fill:#000000;fill-opacity:1;fill-rule:nonzero;stroke:none;font-family:Courier New;-inkscape-font-specification:Courier"
         x="245.29938 251.29938 257.29938 275.29938 281.29938 287.29938 293.29938 299.29938 305.29938 311.29938 317.29938 323.29938 329.29938 335.29938 341.29938 359.29938 365.29938 371.29938 377.29938 383.29938 389.29938 395.29938 401.29938 407.29935 413.29935 419.29935 425.29935 437.29935 443.29935 449.29935 455.29935 461.29938 467.29938"
         y="539.16412"
         sodipodi:role="line"
         id="tspan2740-9">07 0.591962818 0.000000000 114084</tspan>
      <tspan
         style="font-size:10px;font-variant:normal;font-weight:normal;writing-mode:lr-tb;fill:#000000;fill-opacity:1;fill-rule:nonzero;stroke:none;font-family:Courier New;-inkscape-font-specification:Courier"
         x="245.29938 251.29938 257.29938 275.29938 281.29938 287.29938 293.29938 299.29938 305.29938 311.29938 317.29938 323.29938 329.29938 335.29938 341.29938 359.29938 365.29938 371.29938 377.29938 383.29938 389.29938 395.29938 401.29938 407.29935 413.29935 419.29935 425.29935 437.29935 443.29935 449.29935 455.29935 461.29938 467.29938"
         y="548.28912"
         sodipodi:role="line"
         id="tspan2742-9">08 0.297863204 0.000000000 624200</tspan>
    </text>
  </g>
</svg>
